<mxfile host="Electron" modified="2022-04-05T15:02:25.821Z" agent="5.0 (Macintosh; Intel Mac OS X 10_15_7) AppleWebKit/537.36 (KHTML, like Gecko) draw.io/15.8.4 Chrome/91.0.4472.164 Electron/13.6.2 Safari/537.36" etag="dDCTSPF3ZnElGTEgHK62" version="15.8.4" type="device">
  <diagram id="nPXv_zS40TNIIb_WLOnc" name="Textract solution">
    <mxGraphModel dx="1141" dy="682" grid="1" gridSize="14" guides="1" tooltips="1" connect="1" arrows="1" fold="1" page="1" pageScale="1" pageWidth="1169" pageHeight="827" math="0" shadow="0">
      <root>
        <mxCell id="0" />
        <mxCell id="1" parent="0" />
        <mxCell id="NX7a0ZiNpin_KCwnmcQB-4" value="read&lt;br&gt;images" style="edgeStyle=none;rounded=0;orthogonalLoop=1;jettySize=auto;html=1;fontSize=12;" edge="1" parent="1" source="BWHgsdIchDKZ8x9PaXOv-3">
          <mxGeometry relative="1" as="geometry">
            <mxPoint x="504" y="392" as="targetPoint" />
          </mxGeometry>
        </mxCell>
        <mxCell id="BWHgsdIchDKZ8x9PaXOv-3" value="&lt;br&gt;&lt;br&gt;&lt;br&gt;&lt;br&gt;&lt;br&gt;&lt;br&gt;~/images/img_01.png&lt;br&gt;~/images/img_02.png&lt;br&gt;~/images/img_03.png&lt;br&gt;~/images/img_04.png&lt;br&gt;&lt;br&gt;&lt;br&gt;&lt;br&gt;&lt;br&gt;&lt;br&gt;&lt;br&gt;&lt;br&gt;&lt;br&gt;~/textract_data/img_01.png.txt&lt;br&gt;~/textract_data/img_02.png.txt&lt;br&gt;~/textract_data/img_03.png.txt" style="rounded=1;whiteSpace=wrap;html=1;fillColor=#dae8fc;strokeColor=#6c8ebf;arcSize=6;align=left;verticalAlign=top;" parent="1" vertex="1">
          <mxGeometry x="238" y="168" width="168" height="448" as="geometry" />
        </mxCell>
        <mxCell id="SwhUTjs0V1nWhBu83zFv-1" value="&lt;h1&gt;&lt;u&gt;Local image search using Amazon Textract&lt;/u&gt;&lt;/h1&gt;" style="text;html=1;strokeColor=none;fillColor=none;spacing=5;spacingTop=-20;whiteSpace=wrap;overflow=hidden;rounded=0;" parent="1" vertex="1">
          <mxGeometry x="28" y="28" width="518" height="56" as="geometry" />
        </mxCell>
        <mxCell id="BWHgsdIchDKZ8x9PaXOv-1" value="local laptop" style="verticalLabelPosition=bottom;html=1;verticalAlign=top;align=center;strokeColor=none;fillColor=#00BEF2;shape=mxgraph.azure.laptop;pointerEvents=1;" parent="1" vertex="1">
          <mxGeometry x="168" y="110" width="148" height="98" as="geometry" />
        </mxCell>
        <mxCell id="BWHgsdIchDKZ8x9PaXOv-2" value="user" style="sketch=0;outlineConnect=0;fontColor=#232F3E;gradientColor=none;fillColor=#232F3E;strokeColor=none;dashed=0;verticalLabelPosition=bottom;verticalAlign=top;align=center;html=1;fontSize=12;fontStyle=0;aspect=fixed;pointerEvents=1;shape=mxgraph.aws4.user;" parent="1" vertex="1">
          <mxGeometry x="56" y="120" width="78" height="78" as="geometry" />
        </mxCell>
        <mxCell id="BWHgsdIchDKZ8x9PaXOv-5" value="Amazon Textract" style="sketch=0;points=[[0,0,0],[0.25,0,0],[0.5,0,0],[0.75,0,0],[1,0,0],[0,1,0],[0.25,1,0],[0.5,1,0],[0.75,1,0],[1,1,0],[0,0.25,0],[0,0.5,0],[0,0.75,0],[1,0.25,0],[1,0.5,0],[1,0.75,0]];outlineConnect=0;fontColor=#232F3E;gradientColor=#4AB29A;gradientDirection=north;fillColor=#116D5B;strokeColor=#ffffff;dashed=0;verticalLabelPosition=bottom;verticalAlign=top;align=center;html=1;fontSize=12;fontStyle=0;aspect=fixed;shape=mxgraph.aws4.resourceIcon;resIcon=mxgraph.aws4.textract;" parent="1" vertex="1">
          <mxGeometry x="577" y="145" width="78" height="78" as="geometry" />
        </mxCell>
        <mxCell id="NX7a0ZiNpin_KCwnmcQB-2" value="send&lt;br&gt;images" style="edgeStyle=none;rounded=0;orthogonalLoop=1;jettySize=auto;html=1;fontSize=12;" edge="1" parent="1" target="BWHgsdIchDKZ8x9PaXOv-5">
          <mxGeometry relative="1" as="geometry">
            <mxPoint x="543" y="321" as="sourcePoint" />
          </mxGeometry>
        </mxCell>
        <mxCell id="NX7a0ZiNpin_KCwnmcQB-1" value="Python&lt;br&gt;script" style="sketch=0;pointerEvents=1;shadow=0;dashed=0;html=1;strokeColor=none;fillColor=#505050;labelPosition=center;verticalLabelPosition=bottom;verticalAlign=top;outlineConnect=0;align=center;shape=mxgraph.office.concepts.script;fontSize=12;opacity=90;" vertex="1" parent="1">
          <mxGeometry x="515" y="349" width="87" height="127" as="geometry" />
        </mxCell>
        <mxCell id="NX7a0ZiNpin_KCwnmcQB-3" value="return text" style="endArrow=classic;html=1;rounded=0;fontSize=12;" edge="1" parent="1">
          <mxGeometry width="50" height="50" relative="1" as="geometry">
            <mxPoint x="655" y="251" as="sourcePoint" />
            <mxPoint x="599" y="349" as="targetPoint" />
          </mxGeometry>
        </mxCell>
        <mxCell id="NX7a0ZiNpin_KCwnmcQB-6" value="write&lt;br&gt;text" style="endArrow=classic;html=1;rounded=0;fontSize=12;entryX=1.015;entryY=0.596;entryDx=0;entryDy=0;entryPerimeter=0;" edge="1" parent="1" target="BWHgsdIchDKZ8x9PaXOv-3">
          <mxGeometry width="50" height="50" relative="1" as="geometry">
            <mxPoint x="504" y="435" as="sourcePoint" />
            <mxPoint x="596" y="350" as="targetPoint" />
          </mxGeometry>
        </mxCell>
        <mxCell id="NX7a0ZiNpin_KCwnmcQB-8" value="search&lt;br&gt;text" style="endArrow=classic;html=1;rounded=0;fontSize=12;entryX=1.015;entryY=0.596;entryDx=0;entryDy=0;entryPerimeter=0;" edge="1" parent="1">
          <mxGeometry width="50" height="50" relative="1" as="geometry">
            <mxPoint x="506" y="474" as="sourcePoint" />
            <mxPoint x="410.52" y="474.00800000000004" as="targetPoint" />
          </mxGeometry>
        </mxCell>
        <mxCell id="q2B4GDZFDnl_7mxxI1hD-1" value="1" style="ellipse;whiteSpace=wrap;html=1;fillColor=#ffe6cc;strokeColor=#d79b00;" vertex="1" parent="1">
          <mxGeometry x="476" y="364" width="20" height="20" as="geometry" />
        </mxCell>
        <mxCell id="q2B4GDZFDnl_7mxxI1hD-2" value="2&lt;span style=&quot;color: rgba(0 , 0 , 0 , 0) ; font-family: monospace ; font-size: 0px&quot;&gt;%3CmxGraphModel%3E%3Croot%3E%3CmxCell%20id%3D%220%22%2F%3E%3CmxCell%20id%3D%221%22%20parent%3D%220%22%2F%3E%3CmxCell%20id%3D%222%22%20value%3D%221%22%20style%3D%22ellipse%3BwhiteSpace%3Dwrap%3Bhtml%3D1%3BfillColor%3D%23ffe6cc%3BstrokeColor%3D%23d79b00%3B%22%20vertex%3D%221%22%20parent%3D%221%22%3E%3CmxGeometry%20x%3D%22476%22%20y%3D%22364%22%20width%3D%2220%22%20height%3D%2220%22%20as%3D%22geometry%22%2F%3E%3C%2FmxCell%3E%3C%2Froot%3E%3C%2FmxGraphModel%3E&lt;/span&gt;" style="ellipse;whiteSpace=wrap;html=1;fillColor=#ffe6cc;strokeColor=#d79b00;" vertex="1" parent="1">
          <mxGeometry x="526" y="294" width="20" height="20" as="geometry" />
        </mxCell>
        <mxCell id="q2B4GDZFDnl_7mxxI1hD-3" value="3" style="ellipse;whiteSpace=wrap;html=1;fillColor=#ffe6cc;strokeColor=#d79b00;" vertex="1" parent="1">
          <mxGeometry x="655" y="266" width="20" height="20" as="geometry" />
        </mxCell>
        <mxCell id="q2B4GDZFDnl_7mxxI1hD-4" value="4" style="ellipse;whiteSpace=wrap;html=1;fillColor=#ffe6cc;strokeColor=#d79b00;" vertex="1" parent="1">
          <mxGeometry x="490" y="411" width="20" height="20" as="geometry" />
        </mxCell>
        <mxCell id="q2B4GDZFDnl_7mxxI1hD-5" value="5" style="ellipse;whiteSpace=wrap;html=1;fillColor=#ffe6cc;strokeColor=#d79b00;" vertex="1" parent="1">
          <mxGeometry x="476" y="478" width="20" height="20" as="geometry" />
        </mxCell>
        <mxCell id="q2B4GDZFDnl_7mxxI1hD-6" value="&lt;font color=&quot;#000000&quot; style=&quot;font-size: 12px&quot;&gt;Textract is only used if image text is not found!&amp;nbsp;&lt;/font&gt;" style="rounded=1;whiteSpace=wrap;html=1;fontSize=12;align=left;verticalAlign=top;arcSize=6;" vertex="1" parent="1">
          <mxGeometry x="700" y="371" width="120" height="60" as="geometry" />
        </mxCell>
      </root>
    </mxGraphModel>
  </diagram>
</mxfile>
